<?xml version="1.0" encoding="iso-8859-1"?>
<!-- Generator: Adobe Illustrator 19.0.0, SVG Export Plug-In . SVG Version: 6.00 Build 0)  -->
<svg version="1.1" id="Capa_1" xmlns="http://www.w3.org/2000/svg" xmlns:xlink="http://www.w3.org/1999/xlink" x="0px" y="0px"
	 viewBox="0 0 512 512" style="enable-background:new 0 0 512 512;" xml:space="preserve">
<path style="fill:#303C42;" d="M256,0C114.833,0,0,114.844,0,256s114.833,256,256,256s256-114.844,256-256S397.167,0,256,0z"/>
<path style="fill:#15BEF0;" d="M256,490.667C126.604,490.667,21.333,385.396,21.333,256S126.604,21.333,256,21.333
	S490.667,126.604,490.667,256S385.396,490.667,256,490.667z"/>
<path style="opacity:0.2;fill:#FFFFFF;enable-background:new    ;" d="M42.667,277.333c0-129.396,105.271-234.667,234.667-234.667
	c59.277,0,113.332,22.267,154.682,58.651C388.978,52.406,326.118,21.333,256,21.333C126.604,21.333,21.333,126.604,21.333,256
	c0,70.118,31.073,132.978,79.984,176.016C64.934,390.665,42.667,336.611,42.667,277.333z"/>
<path style="fill:#303C42;" d="M235.948,183.469c-14.375,13.969-22.615,33.49-22.615,53.542V288c0,41.167,33.5,74.667,74.667,74.667
	h67.469c11.865,0,22.875-5.896,29.438-15.76l34.677-55.667c4.573-6.844,7.083-14.76,7.083-22.604c0-7.052-0.677-15.281-5.729-22.885
	L416,237.802v-3.146c0-23.51-19.135-42.656-42.646-42.667l-40.167-0.01l-1.5-2.458l19.677-38.406
	c2.167-4.292,3.292-9.042,3.292-13.802c0-16.896-13.75-30.646-30.646-30.646h-4.719c-2.781,0-5.448,1.083-7.438,3.021
	L235.948,183.469z"/>
<path style="fill:#FFFFFF;" d="M234.667,237.01c0-14.323,5.885-28.271,16.156-38.25L324.01,128c5.135,0,9.313,4.177,9.313,9.313
	c0,1.438-0.333,2.875-0.979,4.135l-19.635,38.344c-3.688,7.188-3.375,15.604,0.844,22.49c4.208,6.896,11.542,11.021,19.625,11.031
	l40.167,0.01c11.75,0.01,21.323,9.573,21.323,21.333v6.188c0,1.99,0.552,3.938,1.604,5.625l6.719,10.813
	c1.719,2.594,2.344,5.802,2.344,11.354c0,3.573-1.302,7.5-3.677,11.052l-34.688,55.677c-2.427,3.635-6.792,5.969-11.5,5.969H288
	c-29.406,0-53.333-23.927-53.333-53.333V237.01z"/>
<path style="opacity:0.1;enable-background:new    ;" d="M247.092,203.206c-1.052,4.078-1.759,8.236-1.759,12.471v50.99
	C245.333,296.073,270.755,320,302,320h71.686c1.189,0,2.21-0.521,3.335-0.771l-10.052,16.135c-2.427,3.635-6.792,5.969-11.5,5.969
	H288c-29.406,0-53.333-23.927-53.333-53.333v-50.99C234.667,224.635,239.272,212.703,247.092,203.206z"/>
<path style="fill:#303C42;" d="M85.333,224v106.667c0,17.646,14.354,32,32,32H160c17.646,0,32-14.354,32-32V224
	c0-17.646-14.354-32-32-32h-42.667C99.688,192,85.333,206.354,85.333,224z"/>
<path style="fill:#0288D1;" d="M106.667,224c0-5.885,4.781-10.667,10.667-10.667H160c5.885,0,10.667,4.781,10.667,10.667v106.667
	c0,5.885-4.781,10.667-10.667,10.667h-42.667c-5.885,0-10.667-4.781-10.667-10.667V224z"/>
<path style="opacity:0.1;enable-background:new    ;" d="M160,213.333v78.797c0,15.392-12.478,27.87-27.87,27.87h-25.464v10.667
	c0,5.885,4.781,10.667,10.667,10.667H160c5.885,0,10.667-4.781,10.667-10.667V224C170.667,218.115,165.885,213.333,160,213.333z"/>
<linearGradient id="SVGID_1_" gradientUnits="userSpaceOnUse" x1="-45.5785" y1="639.5551" x2="-23.8277" y2="629.4137" gradientTransform="matrix(21.3333 0 0 -21.3333 996.3334 13791.667)">
	<stop  offset="0" style="stop-color:#FFFFFF;stop-opacity:0.2"/>
	<stop  offset="1" style="stop-color:#FFFFFF;stop-opacity:0"/>
</linearGradient>
<path style="fill:url(#SVGID_1_);" d="M256,0C114.833,0,0,114.844,0,256s114.833,256,256,256s256-114.844,256-256S397.167,0,256,0z"
	/>
<g>
</g>
<g>
</g>
<g>
</g>
<g>
</g>
<g>
</g>
<g>
</g>
<g>
</g>
<g>
</g>
<g>
</g>
<g>
</g>
<g>
</g>
<g>
</g>
<g>
</g>
<g>
</g>
<g>
</g>
</svg>
